<svg width="32" height="32" viewBox="0 0 32 32" fill="none" xmlns="http://www.w3.org/2000/svg">
<path fill-rule="evenodd" clip-rule="evenodd" d="M16.8619 7.52851C17.1223 7.26816 17.5444 7.26816 17.8047 7.52851L25.8047 15.5285C25.9298 15.6535 26 15.8231 26 15.9999C26 16.1767 25.9298 16.3463 25.8047 16.4713L17.8047 24.4713C17.5444 24.7317 17.1223 24.7317 16.8619 24.4713C16.6016 24.211 16.6016 23.7889 16.8619 23.5285L23.7239 16.6666H6.66667C6.29848 16.6666 6 16.3681 6 15.9999C6 15.6317 6.29848 15.3333 6.66667 15.3333H23.7239L16.8619 8.47132C16.6016 8.21097 16.6016 7.78886 16.8619 7.52851Z" fill="#4E5DEA"/>
</svg>
