<svg width="24" height="24" viewBox="0 0 24 24" fill="none" xmlns="http://www.w3.org/2000/svg">
<path fill-rule="evenodd" clip-rule="evenodd" d="M2 2.5H5.39776L6.09006 5.5H21.6099L19.8118 14.4903C19.5781 15.6588 18.5521 16.5 17.3604 16.5H9.59103C8.42689 16.5 7.41682 15.6965 7.15505 14.5621L4.60224 3.5H2V2.5ZM9 9H18V10H9V9ZM11 12H16V13H11V12Z" fill="#DE0075"/>
<path d="M8 22C9.10457 22 10 21.1046 10 20C10 18.8954 9.10457 18 8 18C6.89543 18 6 18.8954 6 20C6 21.1046 6.89543 22 8 22Z" fill="#DE0075"/>
<path d="M20 20C20 21.1046 19.1046 22 18 22C16.8954 22 16 21.1046 16 20C16 18.8954 16.8954 18 18 18C19.1046 18 20 18.8954 20 20Z" fill="#DE0075"/>
</svg>
