<svg width="24" height="24" viewBox="0 0 24 24" fill="none" xmlns="http://www.w3.org/2000/svg">
<path d="M9.45852 18.5C9.22048 19.9189 7.9865 21 6.5 21C5.0135 21 3.77952 19.9189 3.54148 18.5H2C0.89543 18.5 0 17.6046 0 16.5V5C0 3.89543 0.89543 3 2 3H16.1865C17.1633 3 18.0957 3.40823 18.7583 4.12602L23.0718 8.79897C23.6686 9.4455 24 10.2931 24 11.173V16.5C24 17.6046 23.1046 18.5 22 18.5H20.4585C20.2205 19.9189 18.9865 21 17.5 21C16.0135 21 14.7795 19.9189 14.5415 18.5H9.45852ZM15.5 18C15.5 19.1046 16.3954 20 17.5 20C18.6046 20 19.5 19.1046 19.5 18C19.5 17.7239 19.7239 17.5 20 17.5H22C22.5523 17.5 23 17.0523 23 16.5V11.173C23 10.5445 22.7633 9.93906 22.337 9.47725L18.0235 4.8043C17.5502 4.29159 16.8843 4 16.1865 4H2C1.44772 4 1 4.44772 1 5V16.5C1 17.0523 1.44772 17.5 2 17.5H4C4.27614 17.5 4.5 17.7239 4.5 18C4.5 19.1046 5.39543 20 6.5 20C7.60457 20 8.5 19.1046 8.5 18C8.5 17.7239 8.72386 17.5 9 17.5H15C15.2761 17.5 15.5 17.7239 15.5 18Z" fill="#DE0075"/>
<path fill-rule="evenodd" clip-rule="evenodd" d="M3.5 5.5H12.5C13.0523 5.5 13.5 5.94772 13.5 6.5V15C13.5 15.5523 13.0523 16 12.5 16H3.5C2.94772 16 2.5 15.5523 2.5 15V6.5C2.5 5.94772 2.94772 5.5 3.5 5.5Z" fill="#FFEEFD"/>
<path d="M5 7.5C5.25642 7.5 5.46775 7.69302 5.49664 7.94169L5.5 8V13.5C5.5 13.7761 5.27614 14 5 14C4.74358 14 4.53225 13.807 4.50336 13.5583L4.5 13.5V8C4.5 7.72386 4.72386 7.5 5 7.5ZM8 7.5C8.25642 7.5 8.46775 7.69302 8.49664 7.94169L8.5 8V13.5C8.5 13.7761 8.27614 14 8 14C7.74358 14 7.53225 13.807 7.50336 13.5583L7.5 13.5V8C7.5 7.72386 7.72386 7.5 8 7.5ZM11 7.5C11.2761 7.5 11.5 7.72386 11.5 8V13.5C11.5 13.7761 11.2761 14 11 14C10.7239 14 10.5 13.7761 10.5 13.5V8C10.5 7.72386 10.7239 7.5 11 7.5ZM16 5.5C16.2564 5.5 16.4678 5.69302 16.4966 5.94169L16.5 6V9C16.5 9.79884 17.1245 10.4518 17.9119 10.4975L18 10.5H21C21.2761 10.5 21.5 10.7239 21.5 11C21.5 11.2564 21.307 11.4678 21.0583 11.4966L21 11.5H18C16.6556 11.5 15.5591 10.4388 15.5023 9.10845L15.5 9V6C15.5 5.72386 15.7239 5.5 16 5.5Z" fill="#DE0075"/>
</svg>
