<svg width="24" height="24" viewBox="0 0 24 24" fill="none" xmlns="http://www.w3.org/2000/svg">
<path d="M2.5 3H19C20.3807 3 21.5 4.11929 21.5 5.5V16C21.5 17.3807 20.3807 18.5 19 18.5H2.5C1.11929 18.5 0 17.3807 0 16V5.5C0 4.11929 1.11929 3 2.5 3ZM2.5 4C1.67157 4 1 4.67157 1 5.5V16C1 16.8284 1.67157 17.5 2.5 17.5H19C19.8284 17.5 20.5 16.8284 20.5 16V5.5C20.5 4.67157 19.8284 4 19 4H2.5Z" fill="#DE0075"/>
<path fill-rule="evenodd" clip-rule="evenodd" d="M18 9.5C18.5523 9.5 19 9.94772 19 10.5V15C19 15.5523 18.5523 16 18 16H3.5C2.94772 16 2.5 15.5523 2.5 15V10.5C2.5 9.94772 2.94772 9.5 3.5 9.5H18ZM18 5.5C18.5523 5.5 19 5.94772 19 6.5V7C19 7.55228 18.5523 8 18 8H3.5C2.94772 8 2.5 7.55228 2.5 7V6.5C2.5 5.94772 2.94772 5.5 3.5 5.5H18Z" fill="#FFEEFD"/>
<path d="M23.5 8C23.7564 8 23.9678 8.19302 23.9966 8.44169L24 8.5V18.5C24 19.8444 22.9388 20.9409 21.6084 20.9977L21.5 21H5.5C5.22386 21 5 20.7761 5 20.5C5 20.2436 5.19302 20.0322 5.44169 20.0034L5.5 20H21.5C22.2988 20 22.9518 19.3755 22.9975 18.5881L23 18.5V8.5C23 8.22386 23.2239 8 23.5 8ZM4.5 13.5H8C8.27614 13.5 8.5 13.7239 8.5 14C8.5 14.2564 8.30698 14.4678 8.05831 14.4966L8 14.5H4.5C4.22386 14.5 4 14.2761 4 14C4 13.7436 4.19302 13.5322 4.44169 13.5034L4.5 13.5ZM12.5 13.5C12.7761 13.5 13 13.7239 13 14C13 14.2761 12.7761 14.5 12.5 14.5H10.5C10.2239 14.5 10 14.2761 10 14C10 13.7239 10.2239 13.5 10.5 13.5H12.5Z" fill="#DE0075"/>
</svg>
