<svg width="20" height="20" viewBox="0 0 20 20" fill="none" xmlns="http://www.w3.org/2000/svg">
<path fill-rule="evenodd" clip-rule="evenodd" d="M10 4.58331C10.2301 4.58331 10.4167 4.76986 10.4167 4.99998V9.58331H15C15.2301 9.58331 15.4167 9.76986 15.4167 9.99998C15.4167 10.2301 15.2301 10.4166 15 10.4166H10.4167V15C10.4167 15.2301 10.2301 15.4166 10 15.4166C9.76988 15.4166 9.58333 15.2301 9.58333 15V10.4166H4.99999C4.76988 10.4166 4.58333 10.2301 4.58333 9.99998C4.58333 9.76986 4.76988 9.58331 4.99999 9.58331H9.58333V4.99998C9.58333 4.76986 9.76988 4.58331 10 4.58331Z" fill="black"/>
</svg>
