<svg width="135" height="40" viewBox="0 0 135 40" fill="none" xmlns="http://www.w3.org/2000/svg">
<g clip-path="url(#clip0_2818_8565)">
<path d="M130.197 40H4.729C2.122 40 0 37.872 0 35.267V4.726C0 2.12 2.122 0 4.729 0H130.197C132.803 0 135 2.12 135 4.726V35.267C135 37.872 132.803 40 130.197 40Z" fill="#A6A6A6"/>
<path d="M134.032 35.2681C134.032 37.3841 132.318 39.0981 130.198 39.0981H4.72901C2.61001 39.0981 0.890015 37.3841 0.890015 35.2681V4.72514C0.890015 2.61014 2.61001 0.890137 4.72901 0.890137H130.197C132.318 0.890137 134.031 2.61014 134.031 4.72514L134.032 35.2681Z" fill="black"/>
<path d="M30.128 19.7837C30.099 16.5607 32.767 14.9927 32.889 14.9197C31.378 12.7167 29.036 12.4157 28.213 12.3917C26.246 12.1847 24.338 13.5687 23.336 13.5687C22.314 13.5687 20.771 12.4117 19.108 12.4457C16.968 12.4787 14.966 13.7177 13.868 15.6417C11.602 19.5647 13.292 25.3297 15.463 28.5007C16.549 30.0537 17.818 31.7877 19.479 31.7267C21.104 31.6597 21.711 30.6907 23.672 30.6907C25.615 30.6907 26.185 31.7267 27.879 31.6877C29.623 31.6597 30.721 30.1277 31.769 28.5607C33.024 26.7807 33.528 25.0277 33.548 24.9377C33.507 24.9237 30.161 23.6467 30.128 19.7837Z" fill="white"/>
<path d="M26.928 10.3058C27.802 9.2128 28.4 7.7258 28.234 6.2168C26.969 6.2728 25.387 7.0918 24.476 8.1608C23.67 9.1028 22.95 10.6468 23.136 12.0988C24.557 12.2048 26.016 11.3818 26.928 10.3058Z" fill="white"/>
<path d="M53.645 31.5038H51.374L50.13 27.5948H45.806L44.621 31.5038H42.41L46.694 18.1958H49.34L53.645 31.5038ZM49.755 25.9548L48.63 22.4798C48.511 22.1248 48.288 21.2888 47.959 19.9728H47.919C47.788 20.5388 47.577 21.3748 47.287 22.4798L46.182 25.9548H49.755Z" fill="white"/>
<path d="M64.662 26.5879C64.662 28.2199 64.221 29.5099 63.339 30.4569C62.549 31.2999 61.568 31.7209 60.397 31.7209C59.133 31.7209 58.225 31.2669 57.672 30.3589H57.632V35.4139H55.5V25.0669C55.5 24.0409 55.473 22.9879 55.421 21.9079H57.296L57.415 23.4289H57.455C58.166 22.2829 59.245 21.7109 60.693 21.7109C61.825 21.7109 62.77 22.1579 63.526 23.0529C64.284 23.9489 64.662 25.1269 64.662 26.5879ZM62.49 26.6659C62.49 25.7319 62.28 24.9619 61.858 24.3559C61.397 23.7239 60.778 23.4079 60.002 23.4079C59.476 23.4079 58.998 23.5839 58.571 23.9309C58.143 24.2809 57.863 24.7379 57.732 25.3039C57.666 25.5679 57.633 25.7839 57.633 25.9539V27.5539C57.633 28.2519 57.847 28.8409 58.275 29.3219C58.703 29.8029 59.259 30.0429 59.943 30.0429C60.746 30.0429 61.371 29.7329 61.818 29.1149C62.266 28.4959 62.49 27.6799 62.49 26.6659Z" fill="white"/>
<path d="M75.699 26.5879C75.699 28.2199 75.258 29.5099 74.375 30.4569C73.586 31.2999 72.605 31.7209 71.434 31.7209C70.17 31.7209 69.262 31.2669 68.71 30.3589H68.67V35.4139H66.538V25.0669C66.538 24.0409 66.511 22.9879 66.459 21.9079H68.334L68.453 23.4289H68.493C69.203 22.2829 70.282 21.7109 71.731 21.7109C72.862 21.7109 73.807 22.1579 74.565 23.0529C75.32 23.9489 75.699 25.1269 75.699 26.5879ZM73.527 26.6659C73.527 25.7319 73.316 24.9619 72.894 24.3559C72.433 23.7239 71.816 23.4079 71.039 23.4079C70.512 23.4079 70.035 23.5839 69.607 23.9309C69.179 24.2809 68.9 24.7379 68.769 25.3039C68.704 25.5679 68.67 25.7839 68.67 25.9539V27.5539C68.67 28.2519 68.884 28.8409 69.31 29.3219C69.738 29.8019 70.294 30.0429 70.98 30.0429C71.783 30.0429 72.408 29.7329 72.855 29.1149C73.303 28.4959 73.527 27.6799 73.527 26.6659Z" fill="white"/>
<path d="M88.0391 27.772C88.0391 28.904 87.6461 29.825 86.8571 30.536C85.9901 31.313 84.7831 31.701 83.2321 31.701C81.8001 31.701 80.6521 31.425 79.7831 30.872L80.2771 29.095C81.2131 29.661 82.2401 29.945 83.3591 29.945C84.1621 29.945 84.7871 29.763 85.2361 29.401C85.6831 29.039 85.9061 28.553 85.9061 27.947C85.9061 27.407 85.7221 26.952 85.3531 26.583C84.9861 26.214 84.3731 25.871 83.5171 25.554C81.1871 24.685 80.0231 23.412 80.0231 21.738C80.0231 20.644 80.4311 19.747 81.2481 19.049C82.0621 18.35 83.1481 18.001 84.5061 18.001C85.7171 18.001 86.7231 18.212 87.5261 18.633L86.9931 20.371C86.2431 19.963 85.3951 19.759 84.4461 19.759C83.6961 19.759 83.1101 19.944 82.6901 20.312C82.3351 20.641 82.1571 21.042 82.1571 21.517C82.1571 22.043 82.3601 22.478 82.7681 22.82C83.1231 23.136 83.7681 23.478 84.7041 23.847C85.8491 24.308 86.6901 24.847 87.2311 25.465C87.7701 26.081 88.0391 26.852 88.0391 27.772Z" fill="white"/>
<path d="M95.088 23.5081H92.738V28.1671C92.738 29.3521 93.152 29.9441 93.982 29.9441C94.363 29.9441 94.679 29.9111 94.929 29.8451L94.988 31.4641C94.568 31.6211 94.015 31.7001 93.33 31.7001C92.488 31.7001 91.83 31.4431 91.355 30.9301C90.882 30.4161 90.644 29.5541 90.644 28.3431V23.5061H89.244V21.9061H90.644V20.1491L92.738 19.5171V21.9061H95.088V23.5081Z" fill="white"/>
<path d="M105.691 26.6269C105.691 28.1019 105.269 29.3129 104.427 30.2599C103.544 31.2349 102.372 31.7209 100.911 31.7209C99.503 31.7209 98.382 31.2539 97.546 30.3199C96.71 29.3859 96.292 28.2069 96.292 26.7859C96.292 25.2989 96.722 24.0809 97.585 23.1339C98.446 22.1859 99.608 21.7119 101.069 21.7119C102.477 21.7119 103.61 22.1789 104.465 23.1139C105.283 24.0209 105.691 25.1919 105.691 26.6269ZM103.479 26.6959C103.479 25.8109 103.29 25.0519 102.907 24.4189C102.46 23.6529 101.821 23.2709 100.993 23.2709C100.136 23.2709 99.485 23.6539 99.038 24.4189C98.655 25.0529 98.466 25.8239 98.466 26.7359C98.466 27.6209 98.655 28.3799 99.038 29.0119C99.499 29.7779 100.143 30.1599 100.974 30.1599C101.788 30.1599 102.427 29.7699 102.888 28.9919C103.281 28.3469 103.479 27.5799 103.479 26.6959Z" fill="white"/>
<path d="M112.621 23.7829C112.41 23.7439 112.185 23.7239 111.949 23.7239C111.199 23.7239 110.619 24.0069 110.211 24.5739C109.856 25.0739 109.678 25.7059 109.678 26.4689V31.5039H107.547L107.567 24.9299C107.567 23.8239 107.54 22.8169 107.487 21.9089H109.344L109.422 23.7449H109.481C109.706 23.1139 110.061 22.6059 110.547 22.2249C111.022 21.8819 111.535 21.7109 112.088 21.7109C112.285 21.7109 112.463 21.7249 112.621 21.7499V23.7829Z" fill="white"/>
<path d="M122.156 26.2519C122.156 26.6339 122.131 26.9559 122.078 27.2189H115.682C115.707 28.1669 116.016 28.8919 116.61 29.3919C117.149 29.8389 117.846 30.0629 118.702 30.0629C119.649 30.0629 120.513 29.9119 121.29 29.6089L121.624 31.0889C120.716 31.4849 119.644 31.6819 118.407 31.6819C116.919 31.6819 115.751 31.2439 114.901 30.3689C114.053 29.4939 113.628 28.3189 113.628 26.8449C113.628 25.3979 114.023 24.1929 114.814 23.2319C115.642 22.2059 116.761 21.6929 118.169 21.6929C119.552 21.6929 120.599 22.2059 121.31 23.2319C121.873 24.0469 122.156 25.0549 122.156 26.2519ZM120.123 25.6989C120.137 25.0669 119.998 24.5209 119.709 24.0599C119.34 23.4669 118.773 23.1709 118.01 23.1709C117.313 23.1709 116.746 23.4599 116.313 24.0399C115.958 24.5009 115.747 25.0539 115.682 25.6979L120.123 25.6989Z" fill="white"/>
<path d="M49.05 10.0092C49.05 11.1862 48.697 12.0722 47.992 12.6672C47.339 13.2162 46.411 13.4912 45.209 13.4912C44.613 13.4912 44.103 13.4652 43.676 13.4132V6.98219C44.233 6.89219 44.833 6.84619 45.481 6.84619C46.626 6.84619 47.489 7.09519 48.071 7.59319C48.723 8.15619 49.05 8.96119 49.05 10.0092ZM47.945 10.0382C47.945 9.27519 47.743 8.69019 47.339 8.28219C46.935 7.87519 46.345 7.67119 45.568 7.67119C45.238 7.67119 44.957 7.69319 44.724 7.73919V12.6282C44.853 12.6482 45.089 12.6572 45.432 12.6572C46.234 12.6572 46.853 12.4342 47.289 11.9882C47.725 11.5422 47.945 10.8922 47.945 10.0382Z" fill="white"/>
<path d="M54.909 11.037C54.909 11.762 54.702 12.356 54.288 12.822C53.854 13.301 53.279 13.54 52.561 13.54C51.869 13.54 51.318 13.311 50.907 12.851C50.497 12.392 50.292 11.813 50.292 11.115C50.292 10.385 50.503 9.78605 50.927 9.32105C51.351 8.85605 51.921 8.62305 52.639 8.62305C53.331 8.62305 53.887 8.85205 54.308 9.31105C54.708 9.75705 54.909 10.333 54.909 11.037ZM53.822 11.071C53.822 10.636 53.728 10.263 53.541 9.95205C53.321 9.57605 53.008 9.38805 52.601 9.38805C52.18 9.38805 51.86 9.57605 51.64 9.95205C51.452 10.263 51.359 10.642 51.359 11.09C51.359 11.525 51.453 11.898 51.64 12.209C51.867 12.585 52.183 12.773 52.591 12.773C52.991 12.773 53.305 12.582 53.531 12.199C53.725 11.882 53.822 11.506 53.822 11.071Z" fill="white"/>
<path d="M62.7651 8.71924L61.2901 13.4332H60.3301L59.7191 11.3862C59.5641 10.8752 59.4381 10.3672 59.3401 9.86324H59.3211C59.2301 10.3812 59.1041 10.8882 58.9421 11.3862L58.2931 13.4332H57.3221L55.9351 8.71924H57.0121L57.5451 10.9602C57.6741 11.4902 57.7801 11.9952 57.8651 12.4732H57.8841C57.9621 12.0792 58.0911 11.5772 58.2731 10.9702L58.9421 8.72024H59.7961L60.4371 10.9222C60.5921 11.4592 60.7181 11.9762 60.8151 12.4742H60.8441C60.9151 11.9892 61.0221 11.4722 61.1641 10.9222L61.7361 8.72024H62.7651V8.71924Z" fill="white"/>
<path d="M68.198 13.4331H67.15V10.7331C67.15 9.90112 66.834 9.48512 66.2 9.48512C65.889 9.48512 65.638 9.59912 65.443 9.82812C65.25 10.0571 65.152 10.3271 65.152 10.6361V13.4321H64.104V10.0661C64.104 9.65212 64.091 9.20312 64.066 8.71712H64.987L65.036 9.45412H65.065C65.187 9.22512 65.369 9.03612 65.608 8.88512C65.892 8.70912 66.21 8.62012 66.558 8.62012C66.998 8.62012 67.364 8.76212 67.655 9.04712C68.017 9.39612 68.198 9.91712 68.198 10.6091V13.4331Z" fill="white"/>
<path d="M71.088 13.4332H70.041V6.55615H71.088V13.4332Z" fill="white"/>
<path d="M77.258 11.037C77.258 11.762 77.051 12.356 76.637 12.822C76.203 13.301 75.627 13.54 74.91 13.54C74.217 13.54 73.666 13.311 73.256 12.851C72.846 12.392 72.641 11.813 72.641 11.115C72.641 10.385 72.852 9.78605 73.276 9.32105C73.7 8.85605 74.27 8.62305 74.987 8.62305C75.68 8.62305 76.235 8.85205 76.657 9.31105C77.057 9.75705 77.258 10.333 77.258 11.037ZM76.17 11.071C76.17 10.636 76.076 10.263 75.889 9.95205C75.67 9.57605 75.356 9.38805 74.95 9.38805C74.528 9.38805 74.208 9.57605 73.989 9.95205C73.801 10.263 73.708 10.642 73.708 11.09C73.708 11.525 73.802 11.898 73.989 12.209C74.216 12.585 74.532 12.773 74.94 12.773C75.34 12.773 75.653 12.582 75.879 12.199C76.074 11.882 76.17 11.506 76.17 11.071Z" fill="white"/>
<path d="M82.3301 13.433H81.3891L81.3111 12.89H81.2821C80.9601 13.323 80.5011 13.54 79.9051 13.54C79.4601 13.54 79.1001 13.397 78.8291 13.113C78.5831 12.855 78.4601 12.534 78.4601 12.153C78.4601 11.577 78.7001 11.138 79.1831 10.834C79.6651 10.53 80.3431 10.381 81.2161 10.388V10.3C81.2161 9.67905 80.8901 9.36905 80.2371 9.36905C79.7721 9.36905 79.3621 9.48605 79.0081 9.71805L78.7951 9.03005C79.2331 8.75905 79.7741 8.62305 80.4121 8.62305C81.6441 8.62305 82.2621 9.27305 82.2621 10.573V12.309C82.2621 12.78 82.2851 13.155 82.3301 13.433ZM81.2421 11.813V11.086C80.0861 11.066 79.5081 11.383 79.5081 12.036C79.5081 12.282 79.5741 12.466 79.7091 12.589C79.8441 12.712 80.0161 12.773 80.2211 12.773C80.4511 12.773 80.6661 12.7 80.8621 12.555C81.0591 12.409 81.1801 12.224 81.2251 11.997C81.2361 11.946 81.2421 11.884 81.2421 11.813Z" fill="white"/>
<path d="M88.285 13.4332H87.355L87.306 12.6762H87.277C86.98 13.2522 86.474 13.5402 85.763 13.5402C85.195 13.5402 84.722 13.3172 84.347 12.8712C83.972 12.4252 83.785 11.8462 83.785 11.1352C83.785 10.3722 83.988 9.75415 84.396 9.28215C84.791 8.84215 85.275 8.62215 85.851 8.62215C86.484 8.62215 86.927 8.83515 87.179 9.26215H87.199V6.55615H88.248V12.1632C88.248 12.6222 88.26 13.0452 88.285 13.4332ZM87.199 11.4452V10.6592C87.199 10.5232 87.189 10.4132 87.17 10.3292C87.111 10.0772 86.984 9.86515 86.791 9.69415C86.596 9.52315 86.361 9.43715 86.09 9.43715C85.699 9.43715 85.393 9.59215 85.168 9.90315C84.945 10.2142 84.832 10.6112 84.832 11.0962C84.832 11.5622 84.939 11.9402 85.154 12.2312C85.381 12.5412 85.687 12.6962 86.07 12.6962C86.414 12.6962 86.689 12.5672 86.898 12.3082C87.1 12.0692 87.199 11.7812 87.199 11.4452Z" fill="white"/>
<path d="M97.248 11.037C97.248 11.762 97.041 12.356 96.627 12.822C96.193 13.301 95.619 13.54 94.9 13.54C94.209 13.54 93.658 13.311 93.246 12.851C92.836 12.392 92.631 11.813 92.631 11.115C92.631 10.385 92.842 9.78605 93.266 9.32105C93.69 8.85605 94.26 8.62305 94.979 8.62305C95.67 8.62305 96.227 8.85205 96.647 9.31105C97.047 9.75705 97.248 10.333 97.248 11.037ZM96.162 11.071C96.162 10.636 96.068 10.263 95.881 9.95205C95.66 9.57605 95.348 9.38805 94.94 9.38805C94.52 9.38805 94.2 9.57605 93.979 9.95205C93.791 10.263 93.698 10.642 93.698 11.09C93.698 11.525 93.792 11.898 93.979 12.209C94.206 12.585 94.522 12.773 94.93 12.773C95.33 12.773 95.645 12.582 95.871 12.199C96.064 11.882 96.162 11.506 96.162 11.071Z" fill="white"/>
<path d="M102.883 13.4331H101.836V10.7331C101.836 9.90112 101.52 9.48512 100.885 9.48512C100.574 9.48512 100.323 9.59912 100.129 9.82812C99.9351 10.0571 99.8381 10.3271 99.8381 10.6361V13.4321H98.7891V10.0661C98.7891 9.65212 98.7771 9.20312 98.7521 8.71712H99.6721L99.7211 9.45412H99.7501C99.8731 9.22512 100.055 9.03612 100.293 8.88512C100.578 8.70912 100.895 8.62012 101.244 8.62012C101.683 8.62012 102.049 8.76212 102.34 9.04712C102.703 9.39612 102.883 9.91712 102.883 10.6091V13.4331Z" fill="white"/>
<path d="M109.936 9.50392H108.782V11.7939C108.782 12.3759 108.987 12.6669 109.393 12.6669C109.581 12.6669 109.737 12.6509 109.86 12.6179L109.887 13.4129C109.68 13.4909 109.408 13.5299 109.073 13.5299C108.659 13.5299 108.337 13.4039 108.104 13.1519C107.87 12.8999 107.754 12.4759 107.754 11.8809V9.50392H107.065V8.71892H107.754V7.85492L108.781 7.54492V8.71792H109.935L109.936 9.50392Z" fill="white"/>
<path d="M115.484 13.4332H114.435V10.7532C114.435 9.90815 114.119 9.48515 113.486 9.48515C113 9.48515 112.668 9.73015 112.486 10.2202C112.455 10.3232 112.437 10.4492 112.437 10.5972V13.4322H111.39V6.55615H112.437V9.39715H112.457C112.787 8.88015 113.26 8.62215 113.873 8.62215C114.307 8.62215 114.666 8.76415 114.951 9.04915C115.306 9.40415 115.484 9.93215 115.484 10.6302V13.4332Z" fill="white"/>
<path d="M121.207 10.8533C121.207 11.0413 121.193 11.1993 121.168 11.3283H118.025C118.039 11.7943 118.189 12.1493 118.48 12.3953C118.746 12.6153 119.089 12.7253 119.509 12.7253C119.974 12.7253 120.398 12.6513 120.78 12.5023L120.944 13.2303C120.497 13.4243 119.971 13.5213 119.362 13.5213C118.632 13.5213 118.057 13.3063 117.641 12.8763C117.223 12.4463 117.016 11.8693 117.016 11.1453C117.016 10.4343 117.209 9.84226 117.598 9.37026C118.004 8.86626 118.553 8.61426 119.246 8.61426C119.924 8.61426 120.439 8.86626 120.787 9.37026C121.068 9.77026 121.207 10.2653 121.207 10.8533ZM120.207 10.5823C120.215 10.2713 120.146 10.0033 120.004 9.77726C119.822 9.48626 119.545 9.34026 119.17 9.34026C118.828 9.34026 118.549 9.48226 118.336 9.76726C118.162 9.99426 118.059 10.2653 118.025 10.5823H120.207Z" fill="white"/>
</g>
<defs>
<clipPath id="clip0_2818_8565">
<rect width="135" height="40" fill="white"/>
</clipPath>
</defs>
</svg>
