<svg width="40" height="40" viewBox="0 0 40 40" fill="none" xmlns="http://www.w3.org/2000/svg">
<path d="M14.1667 40C13.7064 40 13.3333 39.6269 13.3333 39.1667C13.3333 38.7064 13.7064 38.3333 14.1667 38.3333H19.1667L19.1672 33.3106C11.7084 32.9025 5.70074 27.0451 5.0571 19.6513L1.85542 17.5163C0.696255 16.7435 0 15.4425 0 14.0494V9.16667C0 6.86548 1.86548 5 4.16667 5H5V4.16667C5 1.86548 6.86548 0 9.16667 0H30.8333C33.1345 0 35 1.86548 35 4.16667V5H35.8333C38.1345 5 40 6.86548 40 9.16667V14.0494C40 15.4425 39.3037 16.7435 38.1446 17.5163L34.9429 19.6513C34.2993 27.0448 28.292 32.902 20.8336 33.3106L20.8333 38.3333H25.8333C26.2607 38.3333 26.6129 38.655 26.6611 39.0695L26.6667 39.1667C26.6667 39.6269 26.2936 40 25.8333 40H14.1667ZM30.8333 1.66667H9.16667C7.78595 1.66667 6.66667 2.78595 6.66667 4.16667V18.3333C6.66667 25.6971 12.6362 31.6667 20 31.6667C27.3638 31.6667 33.3333 25.6971 33.3333 18.3333V4.16667C33.3333 2.78595 32.214 1.66667 30.8333 1.66667ZM35.8333 6.66667H35V17.6096L37.2201 16.1295C37.9156 15.6658 38.3333 14.8853 38.3333 14.0494V9.16667C38.3333 7.78595 37.214 6.66667 35.8333 6.66667ZM5 6.66667H4.16667C2.78595 6.66667 1.66667 7.78595 1.66667 9.16667V14.0494C1.66667 14.8853 2.08442 15.6658 2.77992 16.1295L5 17.6096V6.66667Z" fill="#DE0075"/>
<path fill-rule="evenodd" clip-rule="evenodd" d="M29.1667 4.16669C30.0871 4.16669 30.8333 4.91288 30.8333 5.83335V18.3334C30.8333 24.3164 25.9831 29.1667 20 29.1667C14.0169 29.1667 9.16666 24.3164 9.16666 18.3334V5.83335C9.16666 4.91288 9.91286 4.16669 10.8333 4.16669H29.1667ZM20.4388 8.43375C19.9477 8.19663 19.353 8.39389 19.1106 8.87435L17.9338 11.2069C17.7172 11.6364 17.2983 11.9341 16.8138 12.0029L14.1824 12.377C13.9666 12.4076 13.7671 12.5071 13.6149 12.6598C13.2326 13.0435 13.2406 13.6577 13.6328 14.0317L15.5369 15.8473C15.8875 16.1816 16.0475 16.6633 15.9647 17.1353L15.5152 19.699C15.4784 19.9093 15.5134 20.1256 15.6149 20.3145C15.8697 20.7887 16.4693 20.971 16.9541 20.7217L19.3077 19.5113C19.7411 19.2884 20.2588 19.2884 20.6922 19.5113L23.0457 20.7217C23.2388 20.821 23.4599 20.8553 23.6749 20.8192C24.2147 20.7286 24.5772 20.2271 24.4846 19.699L24.0352 17.1353C23.9524 16.6633 24.1124 16.1816 24.463 15.8473L26.3671 14.0317C26.5232 13.8828 26.6249 13.6876 26.6562 13.4765C26.735 12.9463 26.3594 12.454 25.8174 12.377L23.1861 12.0029C22.7015 11.9341 22.2827 11.6364 22.066 11.2069L20.8892 8.87435C20.7927 8.68303 20.6344 8.52817 20.4388 8.43375Z" fill="#FFEEFD"/>
<path d="M17.3353 21.4627C16.4484 21.9188 15.3519 21.5854 14.8808 20.7089C14.6909 20.3556 14.6252 19.9497 14.6944 19.5551L15.1439 16.9914C15.1784 16.7947 15.1114 16.593 14.9618 16.4504L13.0577 14.6347C12.3273 13.9383 12.3123 12.7864 13.0246 12.0716C13.305 11.7902 13.6706 11.608 14.0652 11.5519L16.6965 11.1778C16.9125 11.1471 17.0966 11.0163 17.1898 10.8315L18.3666 8.49894C18.8149 7.61046 19.9028 7.24956 20.8011 7.68325C21.1611 7.85705 21.4539 8.14343 21.6332 8.49894L22.81 10.8315C22.9033 11.0163 23.0873 11.1471 23.3033 11.1778L25.9347 11.5519C26.9305 11.6934 27.6278 12.6075 27.4805 13.5989C27.4218 13.9941 27.2322 14.3582 26.9421 14.6347L25.0381 16.4504C24.8884 16.593 24.8215 16.7947 24.856 16.9914L25.3055 19.5551C25.4786 20.5427 24.805 21.4745 23.8127 21.641C23.4208 21.7068 23.0176 21.6443 22.6646 21.4627L20.311 20.2523C20.1169 20.1525 19.883 20.1525 19.6888 20.2523L17.3353 21.4627ZM21.0733 18.7702L23.4269 19.9806C23.46 19.9976 23.499 20.0037 23.537 19.9973C23.6244 19.9826 23.6758 19.9114 23.6638 19.8429L23.2143 17.2792C23.0833 16.5318 23.3363 15.7701 23.8879 15.2442L25.792 13.4285C25.8143 13.4073 25.8279 13.3811 25.8319 13.354C25.8422 13.285 25.7884 13.2145 25.7002 13.202L23.0688 12.8279C22.3158 12.7209 21.6621 12.2563 21.322 11.5822L20.1452 9.24966C20.1315 9.22254 20.1077 9.1992 20.0765 9.18416C19.9926 9.14361 19.8912 9.17724 19.8546 9.24966L18.6779 11.5822C18.3378 12.2563 17.6841 12.7209 16.9311 12.8279L14.2997 13.202C14.2626 13.2072 14.2293 13.2238 14.2052 13.248C14.1529 13.3005 14.1539 13.3771 14.2079 13.4285L16.112 15.2442C16.6636 15.7701 16.9166 16.5318 16.7855 17.2792L16.336 19.8429C16.3315 19.8689 16.3358 19.8956 16.3489 19.9199C16.3876 19.9919 16.4903 20.0232 16.573 19.9806L18.9266 18.7702C19.5991 18.4243 20.4007 18.4243 21.0733 18.7702Z" fill="#DE0075"/>
</svg>
