<svg width="16" height="16" viewBox="0 0 16 16" fill="none" xmlns="http://www.w3.org/2000/svg">
<path fill-rule="evenodd" clip-rule="evenodd" d="M5.85187 2.33337H10.1481C10.6957 2.33337 11.127 2.33337 11.4741 2.36173C11.8282 2.39066 12.1239 2.45077 12.3926 2.58769C12.8317 2.8114 13.1886 3.16835 13.4124 3.6074C13.5493 3.87613 13.6094 4.17185 13.6383 4.52597C13.6667 4.87307 13.6667 5.30438 13.6667 5.85189V10.1482C13.6667 10.6957 13.6667 11.127 13.6383 11.4741C13.6094 11.8282 13.5493 12.124 13.4124 12.3927C13.1886 12.8317 12.8317 13.1887 12.3926 13.4124C12.1239 13.5493 11.8282 13.6094 11.4741 13.6384C11.127 13.6667 10.6957 13.6667 10.1481 13.6667H5.85186C5.30435 13.6667 4.87303 13.6667 4.52593 13.6384C4.17181 13.6094 3.87609 13.5493 3.60736 13.4124C3.16831 13.1887 2.81136 12.8317 2.58765 12.3927C2.45073 12.124 2.39062 11.8282 2.36169 11.4741C2.33333 11.127 2.33333 10.6957 2.33334 10.1482V5.8519C2.33333 5.30439 2.33333 4.87307 2.36169 4.52597C2.39062 4.17185 2.45073 3.87613 2.58765 3.6074C2.81136 3.16835 3.16831 2.8114 3.60736 2.58769C3.87609 2.45077 4.17181 2.39066 4.52593 2.36173C4.87303 2.33337 5.30435 2.33337 5.85187 2.33337ZM4.58022 3.02618C4.26733 3.05175 4.06911 3.10064 3.91002 3.1817C3.59641 3.34149 3.34145 3.59645 3.18166 3.91006C3.1006 4.06915 3.05171 4.26736 3.02614 4.58026C3.00026 4.89704 3 5.30115 3 5.86671V10.1334C3 10.6989 3.00026 11.103 3.02614 11.4198C3.05171 11.7327 3.1006 11.9309 3.18166 12.09C3.34145 12.4036 3.59641 12.6586 3.91002 12.8184C4.06911 12.8994 4.26733 12.9483 4.58022 12.9739C4.897 12.9998 5.30112 13 5.86667 13H10.1333C10.6989 13 11.103 12.9998 11.4198 12.9739C11.7327 12.9483 11.9309 12.8994 12.09 12.8184C12.4036 12.6586 12.6586 12.4036 12.8183 12.09C12.8994 11.9309 12.9483 11.7327 12.9739 11.4198C12.9997 11.103 13 10.6989 13 10.1334V5.86671C13 5.30115 12.9997 4.89704 12.9739 4.58026C12.9483 4.26736 12.8994 4.06915 12.8183 3.91006C12.6586 3.59645 12.4036 3.34149 12.09 3.1817C11.9309 3.10064 11.7327 3.05175 11.4198 3.02618C11.103 3.0003 10.6989 3.00004 10.1333 3.00004H5.86667C5.30112 3.00004 4.897 3.0003 4.58022 3.02618Z" fill="#DE0075"/>
<path fill-rule="evenodd" clip-rule="evenodd" d="M7.33333 5.33329C7.33333 4.9651 7.63181 4.66663 8 4.66663H8.00666C8.37485 4.66663 8.67333 4.9651 8.67333 5.33329C8.67333 5.70148 8.37485 5.99996 8.00666 5.99996H8C7.63181 5.99996 7.33333 5.70148 7.33333 5.33329ZM4.66666 7.99996C4.66666 7.63177 4.96514 7.33329 5.33333 7.33329H5.34C5.70819 7.33329 6.00666 7.63177 6.00666 7.99996C6.00666 8.36815 5.70819 8.66663 5.34 8.66663H5.33333C4.96514 8.66663 4.66666 8.36815 4.66666 7.99996ZM7.33333 7.99996C7.33333 7.63177 7.63181 7.33329 8 7.33329H8.00666C8.37485 7.33329 8.67333 7.63177 8.67333 7.99996C8.67333 8.36815 8.37485 8.66663 8.00666 8.66663H8C7.63181 8.66663 7.33333 8.36815 7.33333 7.99996ZM10 7.99996C10 7.63177 10.2985 7.33329 10.6667 7.33329H10.6733C11.0415 7.33329 11.34 7.63177 11.34 7.99996C11.34 8.36815 11.0415 8.66663 10.6733 8.66663H10.6667C10.2985 8.66663 10 8.36815 10 7.99996ZM7.33333 10.6666C7.33333 10.2984 7.63181 9.99996 8 9.99996H8.00666C8.37485 9.99996 8.67333 10.2984 8.67333 10.6666C8.67333 11.0348 8.37485 11.3333 8.00666 11.3333H8C7.63181 11.3333 7.33333 11.0348 7.33333 10.6666Z" fill="#DE0075"/>
</svg>
