<svg width="41" height="40" viewBox="0 0 41 40" fill="none" xmlns="http://www.w3.org/2000/svg">
<g clip-path="url(#clip0_2683_7951)">
<path d="M4.49998 5H32C34.3012 5 36.1666 6.86548 36.1666 9.16667V26.6667C36.1666 28.9679 34.3012 30.8333 32 30.8333H4.49998C2.19879 30.8333 0.333313 28.9679 0.333313 26.6667V9.16667C0.333313 6.86548 2.19879 5 4.49998 5ZM4.49998 6.66667C3.11927 6.66667 1.99998 7.78595 1.99998 9.16667V26.6667C1.99998 28.0474 3.11927 29.1667 4.49998 29.1667H32C33.3807 29.1667 34.5 28.0474 34.5 26.6667V9.16667C34.5 7.78595 33.3807 6.66667 32 6.66667H4.49998Z" fill="#DE0075"/>
<path fill-rule="evenodd" clip-rule="evenodd" d="M30.3333 15.8334C31.2538 15.8334 32 16.5795 32 17.5V25C32 25.9205 31.2538 26.6667 30.3333 26.6667H6.16667C5.24619 26.6667 4.5 25.9205 4.5 25V17.5C4.5 16.5795 5.24619 15.8334 6.16667 15.8334H30.3333ZM30.3333 9.16669C31.2538 9.16669 32 9.91288 32 10.8334V11.6667C32 12.5872 31.2538 13.3334 30.3333 13.3334H6.16667C5.24619 13.3334 4.5 12.5872 4.5 11.6667V10.8334C4.5 9.91288 5.24619 9.16669 6.16667 9.16669H30.3333Z" fill="#FFEEFD"/>
<path d="M39.5 13.3333C39.9274 13.3333 40.2796 13.655 40.3277 14.0695L40.3333 14.1666V30.8333C40.3333 33.0739 38.5647 34.9015 36.3474 34.9961L36.1667 35H9.5C9.03976 35 8.66667 34.6269 8.66667 34.1666C8.66667 33.7393 8.98837 33.3871 9.40282 33.3389L9.5 33.3333H36.1667C37.4981 33.3333 38.5864 32.2925 38.6624 30.9802L38.6667 30.8333V14.1666C38.6667 13.7064 39.0398 13.3333 39.5 13.3333ZM7.83333 22.5H13.6667C14.1269 22.5 14.5 22.8731 14.5 23.3333C14.5 23.7607 14.1783 24.1129 13.7639 24.161L13.6667 24.1666H7.83333C7.3731 24.1666 7 23.7936 7 23.3333C7 22.906 7.3217 22.5537 7.73615 22.5056L7.83333 22.5ZM21.1667 22.5C21.6269 22.5 22 22.8731 22 23.3333C22 23.7936 21.6269 24.1666 21.1667 24.1666H17.8333C17.3731 24.1666 17 23.7936 17 23.3333C17 22.8731 17.3731 22.5 17.8333 22.5H21.1667Z" fill="#DE0075"/>
</g>
<defs>
<clipPath id="clip0_2683_7951">
<rect width="40" height="40" fill="white" transform="translate(0.333313)"/>
</clipPath>
</defs>
</svg>
