<svg width="41" height="40" viewBox="0 0 41 40" fill="none" xmlns="http://www.w3.org/2000/svg">
<g clip-path="url(#clip0_2683_7946)">
<path d="M16.4309 30.8333C16.0341 33.1981 13.9775 35 11.5 35C9.02249 35 6.96585 33.1981 6.56912 30.8333H3.99999C2.15904 30.8333 0.666656 29.3409 0.666656 27.5V8.33333C0.666656 6.49238 2.15904 5 3.99999 5H27.6442C29.2722 5 30.8262 5.68039 31.9305 6.8767L39.1197 14.665C40.1143 15.7425 40.6667 17.1551 40.6667 18.6216V27.5C40.6667 29.3409 39.1743 30.8333 37.3333 30.8333H34.7642C34.3675 33.1981 32.3108 35 29.8333 35C27.3558 35 25.2992 33.1981 24.9025 30.8333H16.4309ZM26.5 30C26.5 31.8409 27.9924 33.3333 29.8333 33.3333C31.6743 33.3333 33.1667 31.8409 33.1667 30C33.1667 29.5398 33.5398 29.1667 34 29.1667H37.3333C38.2538 29.1667 39 28.4205 39 27.5V18.6216C39 17.5741 38.6055 16.5651 37.895 15.7954L30.7058 8.00717C29.9171 7.15266 28.8071 6.66667 27.6442 6.66667H3.99999C3.07952 6.66667 2.33332 7.41286 2.33332 8.33333V27.5C2.33332 28.4205 3.07952 29.1667 3.99999 29.1667H7.33332C7.79356 29.1667 8.16666 29.5398 8.16666 30C8.16666 31.8409 9.65904 33.3333 11.5 33.3333C13.3409 33.3333 14.8333 31.8409 14.8333 30C14.8333 29.5398 15.2064 29.1667 15.6667 29.1667H25.6667C26.1269 29.1667 26.5 29.5398 26.5 30Z" fill="#DE0075"/>
<path fill-rule="evenodd" clip-rule="evenodd" d="M6.49998 9.16669H21.5C22.4205 9.16669 23.1666 9.91288 23.1666 10.8334V25C23.1666 25.9205 22.4205 26.6667 21.5 26.6667H6.49998C5.57951 26.6667 4.83331 25.9205 4.83331 25V10.8334C4.83331 9.91288 5.57951 9.16669 6.49998 9.16669Z" fill="#FFEEFD"/>
<path d="M8.99999 12.5C9.42735 12.5 9.77958 12.8217 9.82772 13.2362L9.83332 13.3334V22.5C9.83332 22.9603 9.46023 23.3334 8.99999 23.3334C8.57263 23.3334 8.2204 23.0117 8.17226 22.5972L8.16666 22.5V13.3334C8.16666 12.8731 8.53975 12.5 8.99999 12.5ZM14 12.5C14.4274 12.5 14.7796 12.8217 14.8277 13.2362L14.8333 13.3334V22.5C14.8333 22.9603 14.4602 23.3334 14 23.3334C13.5726 23.3334 13.2204 23.0117 13.1723 22.5972L13.1667 22.5V13.3334C13.1667 12.8731 13.5398 12.5 14 12.5ZM19 12.5C19.4602 12.5 19.8333 12.8731 19.8333 13.3334V22.5C19.8333 22.9603 19.4602 23.3334 19 23.3334C18.5398 23.3334 18.1667 22.9603 18.1667 22.5V13.3334C18.1667 12.8731 18.5398 12.5 19 12.5ZM27.3333 9.16669C27.7607 9.16669 28.1129 9.48839 28.161 9.90284L28.1667 10V15C28.1667 16.3314 29.2074 17.4197 30.5198 17.4958L30.6667 17.5H35.6667C36.1269 17.5 36.5 17.8731 36.5 18.3334C36.5 18.7607 36.1783 19.1129 35.7638 19.1611L35.6667 19.1667H30.6667C28.426 19.1667 26.5985 17.3981 26.5038 15.1808L26.5 15V10C26.5 9.53978 26.8731 9.16669 27.3333 9.16669Z" fill="#DE0075"/>
</g>
<defs>
<clipPath id="clip0_2683_7946">
<rect width="40" height="40" fill="white" transform="translate(0.666656)"/>
</clipPath>
</defs>
</svg>
