<svg width="135" height="40" viewBox="0 0 135 40" fill="none" xmlns="http://www.w3.org/2000/svg">
<g clip-path="url(#clip0_2818_8597)">
<path d="M129.998 40H5.00256C2.25261 40 0.00268555 37.7501 0.00268555 35.0001V5.00085C0.00268555 2.2509 2.25261 0.000976562 5.00256 0.000976562H129.998C132.748 0.000976562 134.997 2.2509 134.997 5.00085V35.0001C134.997 37.7501 132.748 40 129.998 40Z" fill="#100F0D"/>
<path d="M129.998 0.000976562H5.00256C2.25261 0.000976562 0.00268555 2.2509 0.00268555 5.00085V35.0001C0.00268555 37.7501 2.25261 40 5.00256 40H129.998C132.748 40 134.997 37.7501 134.997 35.0001V5.00085C134.997 2.2509 132.748 0.000976562 129.998 0.000976562ZM129.998 0.800552C132.313 0.800552 134.197 2.68493 134.197 5.00085V35.0001C134.197 37.316 132.314 39.2004 129.998 39.2004H5.00256C2.68664 39.2004 0.803086 37.316 0.803086 35.0001V5.00085C0.803086 2.68493 2.68664 0.800552 5.00256 0.800552H129.998Z" fill="#A2A2A1"/>
<path d="M106.935 30.0001H108.801V17.4983H106.935V30.0001ZM123.742 22.0021L121.603 27.4219H121.539L119.319 22.0021H117.309L120.639 29.5771L118.74 33.791H120.686L125.817 22.0025L123.742 22.0021ZM113.159 28.58C112.549 28.58 111.696 28.2741 111.696 27.5183C111.696 26.5535 112.758 26.1836 113.674 26.1836C114.494 26.1836 114.881 26.3602 115.379 26.6016C115.234 27.7597 114.237 28.58 113.159 28.58ZM113.385 21.7286C112.034 21.7286 110.635 22.3239 110.056 23.6427L111.712 24.3341C112.066 23.6427 112.725 23.4177 113.417 23.4177C114.382 23.4177 115.363 23.9962 115.379 25.0259V25.1544C115.041 24.9614 114.317 24.672 113.433 24.672C111.647 24.672 109.83 25.6528 109.83 27.4863C109.83 29.159 111.294 30.2366 112.934 30.2366C114.188 30.2366 114.881 29.6737 115.314 29.0141H115.379V29.9796H117.181V25.1864C117.181 22.9669 115.523 21.7286 113.385 21.7286ZM101.853 23.5239H99.1993V19.2389H101.853C103.248 19.2389 104.04 20.3936 104.04 21.3814C104.04 22.3502 103.248 23.5239 101.853 23.5239ZM101.805 17.4986H97.3342V30.0004H99.1994V25.2642H101.805C103.873 25.2642 105.906 23.7674 105.906 21.3818C105.906 18.9968 103.873 17.4986 101.805 17.4986ZM77.425 28.5821C76.1359 28.5821 75.0571 27.5024 75.0571 26.0209C75.0571 24.5221 76.1359 23.4272 77.425 23.4272C78.6977 23.4272 79.6965 24.5222 79.6965 26.0209C79.6965 27.5024 78.6977 28.5821 77.425 28.5821ZM79.5676 22.7019H79.5031C79.0844 22.2026 78.2785 21.7515 77.2641 21.7515C75.1372 21.7515 73.188 23.6206 73.188 26.0209C73.188 28.4048 75.1372 30.2575 77.2641 30.2575C78.2785 30.2575 79.0843 29.8063 79.5031 29.2911H79.5676V29.9028C79.5676 31.5305 78.6977 32.4 77.2961 32.4C76.1527 32.4 75.4438 31.5785 75.1536 30.8859L73.5268 31.5624C73.9935 32.6897 75.2337 34.0757 77.2962 34.0757C79.4875 34.0757 81.3402 32.7866 81.3402 29.6449V22.0092H79.5676L79.5676 22.7019ZM82.6292 29.9997H84.4972V17.498H82.6292V29.9997ZM87.2522 25.8756C87.2041 24.2323 88.5256 23.3948 89.4756 23.3948C90.217 23.3948 90.8446 23.7655 91.0549 24.2967L87.2522 25.8756ZM93.0517 24.4577C92.6974 23.5077 91.6181 21.7515 89.4111 21.7515C87.2197 21.7515 85.3995 23.4752 85.3995 26.0045C85.3995 28.3889 87.2041 30.2576 89.6201 30.2576C91.5693 30.2576 92.6974 29.0658 93.1649 28.3728L91.7149 27.4061C91.2314 28.115 90.5713 28.5822 89.6201 28.5822C88.6702 28.5822 87.9932 28.1471 87.5589 27.2933L93.245 24.9413L93.0517 24.4577ZM47.7449 23.0565V24.8608H52.0623C51.9334 25.8757 51.5951 26.6166 51.0795 27.1322C50.451 27.7603 49.4683 28.4533 47.7448 28.4533C45.0866 28.4533 43.0086 26.3108 43.0086 23.6526C43.0086 20.9945 45.0866 18.8516 47.7448 18.8516C49.1787 18.8516 50.2256 19.4156 50.9989 20.1406L52.272 18.8676C51.1923 17.8367 49.7587 17.0474 47.7448 17.0474C44.1034 17.0474 41.0426 20.0117 41.0426 23.6526C41.0426 27.2932 44.1034 30.2576 47.7448 30.2576C49.71 30.2576 51.1924 29.6131 52.3521 28.4049C53.5443 27.2127 53.9149 25.5374 53.9149 24.1839C53.9149 23.7655 53.8824 23.3789 53.818 23.0565H47.7449ZM58.8239 28.5821C57.5348 28.5821 56.4232 27.5189 56.4232 26.0045C56.4232 24.4741 57.5348 23.4272 58.8239 23.4272C60.1125 23.4272 61.2241 24.4741 61.2241 26.0045C61.2241 27.5189 60.1125 28.5821 58.8239 28.5821ZM58.8239 21.7515C56.4712 21.7515 54.5544 23.5397 54.5544 26.0045C54.5544 28.4533 56.4712 30.2576 58.8239 30.2576C61.1758 30.2576 63.0929 28.4533 63.0929 26.0045C63.0929 23.5397 61.1758 21.7515 58.8239 21.7515ZM68.1367 28.5821C66.8485 28.5821 65.7364 27.5189 65.7364 26.0045C65.7364 24.4741 66.8485 23.4272 68.1367 23.4272C69.4258 23.4272 70.537 24.4741 70.537 26.0045C70.537 27.5189 69.4258 28.5821 68.1367 28.5821ZM68.1367 21.7515C65.7848 21.7515 63.868 23.5397 63.868 26.0045C63.868 28.4533 65.7848 30.2576 68.1367 30.2576C70.4894 30.2576 72.4062 28.4533 72.4062 26.0045C72.4062 23.5397 70.4894 21.7515 68.1367 21.7515Z" fill="white"/>
<path d="M20.7165 19.4245L10.071 30.724C10.0714 30.7263 10.0722 30.7282 10.0726 30.7306C10.3991 31.9576 11.5198 32.8611 12.8499 32.8611C13.3816 32.8611 13.8807 32.7173 14.3088 32.465L14.3428 32.4451L26.3263 25.5301L20.7165 19.4245Z" fill="#EB3131"/>
<path d="M31.4872 17.5004L31.477 17.4934L26.3034 14.4941L20.4746 19.6808L26.3236 25.5291L31.47 22.5597C32.3722 22.0726 32.9848 21.1214 32.9848 20.0246C32.9848 18.9356 32.3806 17.9891 31.4872 17.5004Z" fill="#F6B60B"/>
<path d="M10.0696 9.27734C10.0056 9.51334 9.97192 9.76053 9.97192 10.0172V29.9845C9.97192 30.2407 10.0052 30.4887 10.07 30.7239L21.083 19.7131L10.0696 9.27734Z" fill="#5778C5"/>
<path d="M20.7952 20.001L26.3057 14.4922L14.3357 7.55211C13.9006 7.29151 13.3928 7.14111 12.8494 7.14111C11.5194 7.14111 10.3971 8.04621 10.0706 9.27464C10.0702 9.27584 10.0702 9.27666 10.0702 9.27771L20.7952 20.001Z" fill="#3BAD49"/>
<path d="M47.3947 9.78136H44.4776V10.5032H46.6635C46.6041 11.0923 46.3698 11.5548 45.9745 11.8907C45.5792 12.2267 45.0745 12.3954 44.4776 12.3954C43.8229 12.3954 43.2682 12.1673 42.8137 11.7143C42.3683 11.2518 42.1418 10.6799 42.1418 9.99083C42.1418 9.30185 42.3683 8.72993 42.8137 8.26748C43.2682 7.81439 43.8229 7.5878 44.4776 7.5878C44.8136 7.5878 45.1339 7.6456 45.4276 7.7722C45.7213 7.89869 45.9572 8.07529 46.1416 8.30188L46.6963 7.7472C46.4447 7.46121 46.126 7.24251 45.7306 7.08312C45.3353 6.92372 44.9229 6.84722 44.4775 6.84722C43.6041 6.84722 42.8636 7.15031 42.2589 7.75502C41.6542 8.36121 41.3511 9.1081 41.3511 9.99085C41.3511 10.8736 41.6542 11.6221 42.2589 12.2268C42.8636 12.8314 43.6041 13.1346 44.4775 13.1346C45.3947 13.1346 46.1259 12.8408 46.6884 12.2439C47.1837 11.7471 47.4368 11.0753 47.4368 10.2347C47.4368 10.0925 47.4197 9.94076 47.3947 9.78136ZM48.5248 6.98146V13.0001H52.0387V12.2611H49.2982V10.3518H51.7701V9.6299H49.2982V7.72213H52.0387V6.98144L48.5248 6.98146ZM56.9661 7.72215V6.98146H52.8302V7.72215H54.5115V13.0001H55.2849V7.72215H56.9661ZM60.7104 6.98146H59.937V13.0001H60.7104V6.98146ZM65.8154 7.72215V6.98146H61.6796V7.72215H63.3607V13.0001H64.1341V7.72215H65.8154ZM73.6199 7.76434C73.023 7.15027 72.2918 6.84717 71.4183 6.84717C70.5434 6.84717 69.8122 7.15026 69.2153 7.75497C68.6184 8.35186 68.3247 9.10024 68.3247 9.99079C68.3247 10.8813 68.6184 11.6298 69.2153 12.2268C69.8122 12.8314 70.5434 13.1346 71.4183 13.1346C72.2839 13.1346 73.023 12.8314 73.6199 12.2268C74.2168 11.6299 74.5104 10.8814 74.5104 9.99079C74.5104 9.10804 74.2167 8.36112 73.6199 7.76434ZM69.77 8.26743C70.2153 7.81434 70.7622 7.58775 71.4183 7.58775C72.073 7.58775 72.6199 7.81435 73.0574 8.26743C73.5027 8.71272 73.7214 9.29388 73.7214 9.99078C73.7214 10.6893 73.5027 11.2689 73.0574 11.7142C72.6199 12.1673 72.073 12.3954 71.4183 12.3954C70.7622 12.3954 70.2153 12.1673 69.77 11.7142C69.334 11.2595 69.1153 10.6893 69.1153 9.99078C69.1153 9.29389 69.334 8.72208 69.77 8.26743ZM76.3479 9.2518L76.3152 8.0908H76.3479L79.4073 13.0001H80.215V6.9814H79.4416V10.5032L79.4744 11.6642H79.4416L76.5167 6.9814H75.5745V13.0001H76.3479V9.2518Z" fill="white" stroke="white" stroke-width="0.26666" stroke-miterlimit="10"/>
</g>
<defs>
<clipPath id="clip0_2818_8597">
<rect width="135" height="39.9998" fill="white"/>
</clipPath>
</defs>
</svg>
