<svg width="48" height="48" viewBox="0 0 48 48" fill="none" xmlns="http://www.w3.org/2000/svg">
<path d="M18.917 36.9998C18.441 39.8375 15.973 41.9998 13 41.9998C10.027 41.9998 7.55904 39.8375 7.08296 36.9998H4C1.79086 36.9998 0 35.2089 0 32.9998V9.99976C0 7.79062 1.79086 5.99976 4 5.99976H32.373C34.3267 5.99976 36.1915 6.81622 37.5166 8.25179L46.1436 17.5977C47.3372 18.8908 48 20.5859 48 22.3457V32.9998C48 35.2089 46.2091 36.9998 44 36.9998H40.917C40.441 39.8375 37.973 41.9998 35 41.9998C32.027 41.9998 29.559 39.8375 29.083 36.9998H18.917ZM31 35.9998C31 38.2089 32.7909 39.9998 35 39.9998C37.2091 39.9998 39 38.2089 39 35.9998C39 35.4475 39.4477 34.9998 40 34.9998H44C45.1046 34.9998 46 34.1043 46 32.9998V22.3457C46 21.0887 45.5266 19.8779 44.674 18.9543L36.047 9.60836C35.1005 8.58294 33.7685 7.99976 32.373 7.99976H4C2.89543 7.99976 2 8.89519 2 9.99976V32.9998C2 34.1043 2.89543 34.9998 4 34.9998H8C8.55229 34.9998 9 35.4475 9 35.9998C9 38.2089 10.7909 39.9998 13 39.9998C15.2091 39.9998 17 38.2089 17 35.9998C17 35.4475 17.4477 34.9998 18 34.9998H30C30.5523 34.9998 31 35.4475 31 35.9998Z" fill="#DE0075"/>
<path fill-rule="evenodd" clip-rule="evenodd" d="M7 10.9998H25C26.1046 10.9998 27 11.8952 27 12.9998V29.9998C27 31.1043 26.1046 31.9998 25 31.9998H7C5.89543 31.9998 5 31.1043 5 29.9998V12.9998C5 11.8952 5.89543 10.9998 7 10.9998Z" fill="#FFEEFD"/>
<path d="M10 14.9998C10.5128 14.9998 10.9355 15.3858 10.9933 15.8831L11 15.9998V26.9998C11 27.552 10.5523 27.9998 10 27.9998C9.48716 27.9998 9.06449 27.6137 9.00673 27.1164L9 26.9998V15.9998C9 15.4475 9.44772 14.9998 10 14.9998ZM16 14.9998C16.5128 14.9998 16.9355 15.3858 16.9933 15.8831L17 15.9998V26.9998C17 27.552 16.5523 27.9998 16 27.9998C15.4872 27.9998 15.0645 27.6137 15.0067 27.1164L15 26.9998V15.9998C15 15.4475 15.4477 14.9998 16 14.9998ZM22 14.9998C22.5523 14.9998 23 15.4475 23 15.9998V26.9998C23 27.552 22.5523 27.9998 22 27.9998C21.4477 27.9998 21 27.552 21 26.9998V15.9998C21 15.4475 21.4477 14.9998 22 14.9998ZM32 10.9998C32.5128 10.9998 32.9355 11.3858 32.9933 11.8831L33 11.9998V17.9998C33 19.5974 34.2489 20.9034 35.8237 20.9947L36 20.9998H42C42.5523 20.9998 43 21.4475 43 21.9998C43 22.5126 42.614 22.9353 42.1166 22.993L42 22.9998H36C33.3112 22.9998 31.1182 20.8774 31.0046 18.2166L31 17.9998V11.9998C31 11.4475 31.4477 10.9998 32 10.9998Z" fill="#DE0075"/>
</svg>
