<svg width="48" height="48" viewBox="0 0 48 48" fill="none" xmlns="http://www.w3.org/2000/svg">
<g clip-path="url(#clip0_2792_9640)">
<path fill-rule="evenodd" clip-rule="evenodd" d="M24 5C34.4934 5 43 13.5066 43 24C43 34.4934 34.4934 43 24 43C13.5066 43 5 34.4934 5 24C5 13.5066 13.5066 5 24 5ZM24.7899 12.1847C23.9058 11.7484 22.8355 12.1114 22.3991 12.9954L20.2809 17.2873C19.8909 18.0775 19.137 18.6253 18.2649 18.752L13.5284 19.4402C13.1399 19.4967 12.7808 19.6796 12.5068 19.9607C11.8187 20.6667 11.8331 21.7968 12.5391 22.4849L15.9664 25.8257C16.5975 26.4408 16.8855 27.3271 16.7365 28.1957L15.9274 32.9129C15.861 33.2998 15.9241 33.6978 16.1068 34.0453C16.5655 34.9179 17.6448 35.2533 18.5175 34.7946L22.7539 32.5674C23.5339 32.1573 24.4658 32.1573 25.2459 32.5674L29.4823 34.7946C29.8298 34.9773 30.2278 35.0403 30.6147 34.9739C31.5864 34.8073 32.239 33.8845 32.0724 32.9129L31.2633 28.1957C31.1143 27.3271 31.4023 26.4408 32.0333 25.8257L35.4607 22.4849C35.7418 22.2109 35.9248 21.8519 35.9812 21.4634C36.123 20.4878 35.447 19.582 34.4714 19.4402L29.7349 18.752C28.8628 18.6253 28.1089 18.0775 27.7188 17.2873L25.6006 12.9954C25.4269 12.6434 25.1419 12.3585 24.7899 12.1847Z" fill="#FFEEFD"/>
<path d="M24 48C37.2548 48 48 37.2548 48 24C48 10.7452 37.2548 0 24 0C10.7452 0 0 10.7452 0 24C0 37.2548 10.7452 48 24 48ZM24 46C11.8497 46 2 36.1503 2 24C2 11.8497 11.8497 2 24 2C36.1503 2 46 11.8497 46 24C46 36.1503 36.1503 46 24 46Z" fill="#DE0075"/>
<path d="M23.2192 33.4525L18.9828 35.6797C17.6213 36.3955 15.9374 35.872 15.2216 34.5106C14.9366 33.9685 14.8383 33.3475 14.9418 32.7438L15.7509 28.0266C15.8442 27.4824 15.6638 26.9272 15.2684 26.5418L11.8411 23.201C10.7396 22.1274 10.7171 20.3641 11.7907 19.2627C12.2183 18.8241 12.7785 18.5387 13.3846 18.4506L18.1211 17.7624C18.6675 17.683 19.1398 17.3398 19.3842 16.8447L21.5024 12.5528C22.1832 11.1735 23.8531 10.6073 25.2325 11.288C25.7817 11.559 26.2263 12.0036 26.4974 12.5528L28.6156 16.8447C28.8599 17.3398 29.3323 17.683 29.8787 17.7624L34.6152 18.4506C36.1373 18.6718 37.192 20.085 36.9708 21.6072C36.8827 22.2133 36.5973 22.7735 36.1587 23.201L32.7313 26.5418C32.336 26.9272 32.1556 27.4824 32.2489 28.0266L33.058 32.7438C33.318 34.2598 32.2998 35.6995 30.7838 35.9595C30.1801 36.0631 29.5591 35.9647 29.017 35.6797L24.7806 33.4525C24.2918 33.1956 23.7079 33.1956 23.2192 33.4525ZM22.2886 31.6823C23.3599 31.119 24.6398 31.119 25.7112 31.6823L29.9476 33.9094C30.1005 33.9898 30.2755 34.0175 30.4457 33.9883C30.873 33.915 31.16 33.5092 31.0868 33.0819L30.2777 28.3647C30.0731 27.1717 30.4686 25.9544 31.3353 25.1096L34.7627 21.7688C34.8863 21.6483 34.9668 21.4904 34.9916 21.3196C35.054 20.8905 34.7567 20.4922 34.3276 20.4298L29.5911 19.7416C28.3933 19.5675 27.3578 18.8152 26.8221 17.7298L24.7039 13.438C24.6275 13.2832 24.5022 13.1579 24.3473 13.0814C23.9585 12.8896 23.4878 13.0492 23.2959 13.438L21.1777 17.7298C20.642 18.8152 19.6065 19.5675 18.4087 19.7416L13.6722 20.4298C13.5013 20.4547 13.3434 20.5351 13.2229 20.6587C12.9203 20.9692 12.9266 21.4662 13.2371 21.7688L16.6644 25.1096C17.5312 25.9544 17.9267 27.1717 17.7221 28.3647L16.913 33.0819C16.8838 33.2521 16.9115 33.4271 16.9919 33.5799C17.1936 33.9636 17.6683 34.1112 18.0521 33.9094L22.2886 31.6823Z" fill="#DE0075"/>
</g>
<defs>
<clipPath id="clip0_2792_9640">
<rect width="48" height="48" fill="white"/>
</clipPath>
</defs>
</svg>
