<svg width="48" height="48" viewBox="0 0 48 48" fill="none" xmlns="http://www.w3.org/2000/svg">
<path d="M5 6H38C40.7614 6 43 8.23858 43 11V32C43 34.7614 40.7614 37 38 37H5C2.23858 37 0 34.7614 0 32V11C0 8.23858 2.23858 6 5 6ZM5 8C3.34315 8 2 9.34315 2 11V32C2 33.6569 3.34315 35 5 35H38C39.6569 35 41 33.6569 41 32V11C41 9.34315 39.6569 8 38 8H5Z" fill="#DE0075"/>
<path fill-rule="evenodd" clip-rule="evenodd" d="M36 19C37.1046 19 38 19.8954 38 21V30C38 31.1046 37.1046 32 36 32H7C5.89543 32 5 31.1046 5 30V21C5 19.8954 5.89543 19 7 19H36ZM36 11C37.1046 11 38 11.8954 38 13V14C38 15.1046 37.1046 16 36 16H7C5.89543 16 5 15.1046 5 14V13C5 11.8954 5.89543 11 7 11H36Z" fill="#FFEEFD"/>
<path d="M47 16C47.5128 16 47.9355 16.386 47.9933 16.8834L48 17V37C48 39.6888 45.8777 41.8818 43.2169 41.9954L43 42H11C10.4477 42 10 41.5523 10 41C10 40.4872 10.386 40.0645 10.8834 40.0067L11 40H43C44.5977 40 45.9037 38.7511 45.9949 37.1763L46 37V17C46 16.4477 46.4477 16 47 16ZM9 27H16C16.5523 27 17 27.4477 17 28C17 28.5128 16.614 28.9355 16.1166 28.9933L16 29H9C8.44772 29 8 28.5523 8 28C8 27.4872 8.38604 27.0645 8.88338 27.0067L9 27ZM25 27C25.5523 27 26 27.4477 26 28C26 28.5523 25.5523 29 25 29H21C20.4477 29 20 28.5523 20 28C20 27.4477 20.4477 27 21 27H25Z" fill="#DE0075"/>
</svg>
