<svg width="48" height="48" viewBox="0 0 48 48" fill="none" xmlns="http://www.w3.org/2000/svg">
<path d="M24 0C32.4653 0 38.9319 1.02105 43.4191 3.09204C43.7732 3.25549 44 3.60995 44 4V19.0151C44 30.9949 37.0973 41.9025 26.2707 47.0309L24.4281 47.9037C24.1571 48.0321 23.8429 48.0321 23.5719 47.9037L21.7293 47.0309C10.9027 41.9025 4 30.9949 4 19.0151V4C4 3.60995 4.22679 3.25549 4.58094 3.09204C9.06809 1.02105 15.5347 0 24 0ZM24 2C16.1704 2 10.1649 2.89219 6 4.65144V19.0151C6 30.222 12.4573 40.4259 22.5855 45.2235L24 45.8935L25.4145 45.2235C35.5427 40.4259 42 30.222 42 19.0151V4.65144C37.8351 2.89219 31.8296 2 24 2Z" fill="#DE0075"/>
<path fill-rule="evenodd" clip-rule="evenodd" d="M24 5C29.5563 5 34.5563 5.66667 39 7V18.801C39 28.6951 33.2107 37.7037 24.1302 41.9392L24 42L23.8698 41.9392C14.7893 37.7037 9 28.6951 9 18.801V7C13.4437 5.66667 18.4437 5 24 5ZM25.0368 12.2121C24.3068 11.7607 23.3861 12.0535 22.9805 12.8661L18.2257 22.3674C18.0776 22.6632 18 22.9955 18 23.3333C18 24.4379 18.8124 25.3333 19.8147 25.3333H22.1853V30.3165C22.1853 30.9278 22.4831 31.491 22.9632 31.7879C23.6932 32.2393 24.6139 31.9465 25.0195 31.1339L29.7743 21.6326C29.9224 21.3368 30 21.0045 30 20.6667C30 19.5621 29.1876 18.6667 28.1853 18.6667H25.8147V13.6835C25.8147 13.0722 25.5169 12.509 25.0368 12.2121Z" fill="#FFEEFD"/>
<path d="M28.1853 17.6667C29.7627 17.6667 31 19.0304 31 20.6667C31 21.159 30.8865 21.6446 30.6686 22.0801L25.9142 31.5805C25.2522 32.907 23.68 33.4069 22.4372 32.6384C21.655 32.1547 21.1853 31.2662 21.1853 30.3165V26.3333H19.8147C18.2373 26.3333 17 24.9697 17 23.3333C17 22.841 17.1135 22.3554 17.3314 21.9199L22.0858 12.4195C22.7478 11.093 24.32 10.5931 25.5628 11.3616C26.345 11.8453 26.8147 12.7338 26.8147 13.6835V17.6667H28.1853ZM24.8147 18.6667V13.6835C24.8147 13.4107 24.6888 13.1727 24.5109 13.0627C24.2936 12.9283 24.0244 13.0139 23.8748 13.3136L19.1199 22.8149C19.0418 22.971 19 23.1501 19 23.3333C19 23.9062 19.3876 24.3333 19.8147 24.3333H22.1853C22.7376 24.3333 23.1853 24.7811 23.1853 25.3333V30.3165C23.1853 30.5893 23.3112 30.8273 23.4891 30.9374C23.7064 31.0717 23.9756 30.9861 24.1252 30.6864L28.8801 21.1851C28.9582 21.029 29 20.85 29 20.6667C29 20.0939 28.6124 19.6667 28.1853 19.6667H25.8147C25.2624 19.6667 24.8147 19.219 24.8147 18.6667Z" fill="#DE0075"/>
</svg>
